<?xml version="1.0" encoding="utf-8"?>
<!-- Generator: Adobe Illustrator 24.2.3, SVG Export Plug-In . SVG Version: 6.00 Build 0)  -->
<svg version="1.1" xmlns="http://www.w3.org/2000/svg" xmlns:xlink="http://www.w3.org/1999/xlink" x="0px" y="0px"
	 viewBox="0 0 2100.55 467.32" style="enable-background:new 0 0 2100.55 467.32;" xml:space="preserve">
<style type="text/css">
	.st0{display:none;}
	.st1{display:inline;}
	.st2{fill:#FFFFFF;}
</style>
<g id="Layer_1" class="st0">
	<g class="st1">
		<polygon points="1318.43,37.46 1306.87,22.16 1075.88,172.3 1075.88,39 1055.74,39 1055.74,185.4 1031.5,201.15 1043.06,216.45 
			1055.74,208.21 1055.74,402.2 1075.88,402.2 1075.88,195.12 1107.69,174.44 1215.99,317.73 1232.49,307.01 1124.18,163.72 		"/>
		<rect x="837.35" y="171" width="23.53" height="18.68"/>
		<rect x="953.74" y="171" width="23.53" height="18.68"/>
		<path d="M2123.28,171h-578.86l-17.98-112.34h8.83V39.97h-11.82l-1.79-11.2l-19.93,2.74l1.35,8.46h-130.17v0.14l-0.5-0.06
			l-42.84,299.39l19.97,2.46l19.69-137.57l216.7,247.14l15.63-11.79l-219.22-250.01h144.7l1.7,10.61l19.93-2.74l-1.26-7.87h575.87
			V171z M1374,171l16.07-112.34h116L1524.05,171H1374z"/>
		<rect x="1172.52" y="171" width="150.52" height="18.68"/>
		<polygon points="1003.53,307.15 828.64,49.62 831.03,26.19 810.97,24.43 771.77,409.71 791.83,411.47 825.54,80.1 1003.53,342.21 
			1003.53,343.14 1023.67,343.14 1023.67,100.85 1003.53,100.85 		"/>
		<polygon points="709.62,38.43 709.61,38.43 709.61,38.12 515.28,38.12 515.28,56.8 691.14,56.8 701.99,171 -22.66,171 
			-22.66,189.68 703.76,189.68 716.37,322.37 347.17,322.37 347.17,341.05 718.51,341.05 718.51,340.87 738.19,339.26 
			723.99,189.68 763.81,189.68 763.81,171 722.21,171 		"/>
	</g>
</g>
<g id="Layer_2" class="st0">
	<rect x="946.6" y="61.64" transform="matrix(0.9956 0.0939 -0.0939 0.9956 28.4417 -88.73)" width="20.15" height="392.17"/>
	<rect x="1053.64" y="46.18" transform="matrix(0.8745 -0.485 0.485 0.8745 23.5217 544.3611)" width="20.15" height="361.09"/>
	
		<rect x="1335.43" y="-2.49" transform="matrix(-0.669 -0.7432 0.7432 -0.669 2134.4695 1249.8137)" width="20.15" height="304.31"/>
	
		<rect x="488.92" y="-163.54" transform="matrix(6.123234e-17 -1 1 6.123234e-17 294.3348 703.6439)" width="20.15" height="736.39"/>
	
		<rect x="1851.92" y="-163.54" transform="matrix(6.123234e-17 -1 1 6.123234e-17 1657.3348 2066.6438)" width="20.15" height="736.39"/>
	
		<rect x="1569.7" y="-10.04" transform="matrix(6.123234e-17 -1 1 6.123234e-17 1516.4093 1643.1415)" width="20.15" height="146.82"/>
	<rect x="755.82" y="-35.8" transform="matrix(6.123234e-17 -1 1 6.123234e-17 704.5302 827.2623)" width="20.15" height="194.34"/>
	
		<rect x="676.22" y="182.22" transform="matrix(6.123234e-17 -1 1 6.123234e-17 318.4014 1054.1876)" width="20.15" height="371.34"/>
	<rect x="1648.12" y="54.72" transform="matrix(0.9804 -0.1969 0.1969 0.9804 6.7563 329.1239)" width="20.15" height="151.75"/>
	<rect x="1338.55" y="187.57" transform="matrix(0.866 -0.5 0.5 0.866 21.5654 716.9468)" width="20.15" height="261.32"/>
	
		<rect x="1603.42" y="170.62" transform="matrix(0.7759 -0.6309 0.6309 0.7759 140.2717 1096.5483)" width="20.15" height="360.46"/>
	<rect x="1141.98" y="67.52" width="20.15" height="322"/>
	<rect x="1220.19" y="30.52" width="20.15" height="413.39"/>
	<rect x="1483" y="53.2" transform="matrix(0.9913 0.1315 -0.1315 0.9913 42.7512 -194.4279)" width="20.15" height="346.36"/>
	<rect x="857.25" y="51.89" transform="matrix(0.9961 -0.0877 0.0877 0.9961 -15.4939 76.9253)" width="20.15" height="325.66"/>
</g>
<g id="Layer_3" class="st0">
</g>
<g id="enkr2">
	<g>
		<polygon class="st2" points="1335.42,25 1321.94,10.02 1110.42,200.43 1110.42,0.16 1090.28,0.16 1090.28,413.55 1110.42,413.55 
			1110.42,227.53 1151.1,190.92 1275.32,406.06 1292.77,395.99 1166.41,177.14 		"/>
		<path class="st2" d="M2100.28,164.22h-548.87l-28.13-140.05v-1.24h-146.82v0.16l-0.5-0.07l-45.56,343.35l19.97,2.65l22.41-168.86
			l216.7,266.51l15.63-12.71l-219.22-269.6h714.39V164.22z M1530.86,164.22h-153.32l16.07-121.14h112.91L1530.86,164.22z"/>
		<polygon class="st2" points="1012.07,316.73 855.14,33.78 855.21,33.1 835.15,31.21 798.31,421.64 818.37,423.54 851.8,69.27 
			1012.07,358.26 1012.07,359.16 1032.22,359.16 1032.22,37.16 1012.07,37.16 		"/>
		<polygon class="st2" points="733.16,21.27 733.15,21.27 733.15,20.94 538.82,20.94 538.82,41.08 714.68,41.08 725.53,164.22 
			0.88,164.22 0.88,184.37 727.3,184.37 739.91,327.46 370.72,327.46 370.72,347.61 742.05,347.61 742.05,347.41 761.74,345.67 		
			"/>
	</g>
</g>
</svg>
